<svg width="22" height="23" viewBox="0 0 22 23" fill="none" xmlns="http://www.w3.org/2000/svg">
<path fill-rule="evenodd" clip-rule="evenodd" d="M10.7563 20.278C10.4726 20.7697 10.0136 21.136 9.47117 21.3035C8.92879 21.471 8.34315 21.4273 7.83165 21.1811L7.6827 21.1016L5.73414 19.9766C5.24245 19.6929 4.87616 19.2339 4.70868 18.6915C4.5412 18.1491 4.58492 17.5635 4.83108 17.052L4.91058 16.903L10.7563 20.278ZM17.3959 2.02781C19.1642 3.0487 20.4669 4.71652 21.0291 6.67944C21.5913 8.64236 21.3692 10.7469 20.4095 12.5492L20.2784 12.7853L18.1611 16.4524L17.8865 21.0276C17.8745 21.2272 17.8144 21.421 17.7111 21.5923C17.6079 21.7636 17.4647 21.9073 17.2938 22.0111C17.1228 22.115 16.9293 22.1759 16.7297 22.1885C16.5301 22.2012 16.3304 22.1654 16.1477 22.084L16.0323 22.0251L0.759523 13.2074C0.586232 13.1074 0.439765 12.9669 0.332674 12.7979C0.225582 12.6289 0.161059 12.4365 0.144634 12.2371C0.12821 12.0377 0.160371 11.8373 0.238365 11.6531C0.31636 11.4688 0.437859 11.3063 0.592453 11.1793L0.696332 11.1028L4.52122 8.57744L6.63847 4.91026C7.68276 3.10149 9.40281 1.78166 11.4202 1.24109C13.4376 0.700528 15.5872 0.983518 17.3959 2.02781ZM16.2709 3.97636C15.0156 3.25168 13.5289 3.03958 12.121 3.38431C10.713 3.72903 9.49252 4.60397 8.71396 5.82665L8.58703 6.03526L6.46978 9.70244C6.33028 9.94408 6.14706 10.1577 5.92946 10.3323L5.76077 10.4557L3.30405 12.0784L15.7388 19.2576L15.9162 16.3177C15.9328 16.0392 16.001 15.7663 16.1173 15.5127L16.2126 15.3274L18.3298 11.6603C19.0757 10.3683 19.2779 8.83291 18.8918 7.3919C18.5056 5.95089 17.5629 4.72229 16.2709 3.97636Z" fill="white"/>
</svg>
