<svg width="21" height="21" viewBox="0 0 21 21" fill="none" xmlns="http://www.w3.org/2000/svg">
<path d="M7.62687 21L7.20896 17.64C6.98259 17.5525 6.76945 17.4475 6.56955 17.325C6.36896 17.2025 6.17289 17.0712 5.98134 16.9312L2.87313 18.2437L0 13.2562L2.6903 11.2087C2.67289 11.0862 2.66418 10.9679 2.66418 10.8538V10.1451C2.66418 10.0317 2.67289 9.91375 2.6903 9.79125L0 7.74375L2.87313 2.75625L5.98134 4.06875C6.17289 3.92875 6.37313 3.7975 6.58209 3.675C6.79105 3.5525 7 3.4475 7.20896 3.36L7.62687 0H13.3731L13.791 3.36C14.0174 3.4475 14.2309 3.5525 14.4315 3.675C14.6314 3.7975 14.8271 3.92875 15.0187 4.06875L18.1269 2.75625L21 7.74375L18.3097 9.79125C18.3271 9.91375 18.3358 10.0317 18.3358 10.1451V10.8538C18.3358 10.9679 18.3184 11.0862 18.2836 11.2087L20.9739 13.2562L18.1007 18.2437L15.0187 16.9312C14.8271 17.0712 14.6269 17.2025 14.4179 17.325C14.209 17.4475 14 17.5525 13.791 17.64L13.3731 21H7.62687ZM10.5522 14.175C11.5622 14.175 12.4241 13.8162 13.1381 13.0987C13.852 12.3812 14.209 11.515 14.209 10.5C14.209 9.485 13.852 8.61875 13.1381 7.90125C12.4241 7.18375 11.5622 6.825 10.5522 6.825C9.52488 6.825 8.65841 7.18375 7.95284 7.90125C7.24796 8.61875 6.89552 9.485 6.89552 10.5C6.89552 11.515 7.24796 12.3812 7.95284 13.0987C8.65841 13.8162 9.52488 14.175 10.5522 14.175ZM10.5522 12.075C10.1169 12.075 9.74707 11.9217 9.44269 11.6151C9.13761 11.3092 8.98508 10.9375 8.98508 10.5C8.98508 10.0625 9.13761 9.6908 9.44269 9.3849C9.74707 9.0783 10.1169 8.925 10.5522 8.925C10.9876 8.925 11.3578 9.0783 11.6628 9.3849C11.9672 9.6908 12.1194 10.0625 12.1194 10.5C12.1194 10.9375 11.9672 11.3092 11.6628 11.6151C11.3578 11.9217 10.9876 12.075 10.5522 12.075ZM9.45522 18.9H11.5187L11.8843 16.1175C12.4241 15.9775 12.9249 15.7717 13.3867 15.5001C13.8478 15.2292 14.2699 14.9012 14.653 14.5162L17.2388 15.5925L18.2575 13.8075L16.0112 12.1012C16.0983 11.8562 16.1592 11.5979 16.194 11.3263C16.2289 11.0554 16.2463 10.78 16.2463 10.5C16.2463 10.22 16.2289 9.9442 16.194 9.6726C16.1592 9.4017 16.0983 9.14375 16.0112 8.89875L18.2575 7.1925L17.2388 5.4075L14.653 6.51C14.2699 6.1075 13.8478 5.77045 13.3867 5.49885C12.9249 5.22795 12.4241 5.0225 11.8843 4.8825L11.5448 2.1H9.48134L9.11567 4.8825C8.57587 5.0225 8.07542 5.22795 7.61433 5.49885C7.15254 5.77045 6.7301 6.09875 6.34702 6.48375L3.76119 5.4075L2.74254 7.1925L4.98881 8.8725C4.90174 9.135 4.8408 9.3975 4.80597 9.66C4.77114 9.9225 4.75373 10.2025 4.75373 10.5C4.75373 10.78 4.77114 11.0512 4.80597 11.3137C4.8408 11.5763 4.90174 11.8387 4.98881 12.1012L2.74254 13.8075L3.76119 15.5925L6.34702 14.49C6.7301 14.8925 7.15254 15.2292 7.61433 15.5001C8.07542 15.7717 8.57587 15.9775 9.11567 16.1175L9.45522 18.9Z" fill="#8C8C8D"/>
</svg>
