<svg width="26" height="20" viewBox="0 0 26 20" fill="none" xmlns="http://www.w3.org/2000/svg">
<path d="M4.53125 5.4375C4.2909 5.4375 4.06039 5.53298 3.89043 5.70293C3.72048 5.87289 3.625 6.1034 3.625 6.34375C3.625 6.5841 3.72048 6.81461 3.89043 6.98457C4.06039 7.15452 4.2909 7.25 4.53125 7.25H17.2188C17.4591 7.25 17.6896 7.15452 17.8596 6.98457C18.0295 6.81461 18.125 6.5841 18.125 6.34375C18.125 6.1034 18.0295 5.87289 17.8596 5.70293C17.6896 5.53298 17.4591 5.4375 17.2188 5.4375H4.53125ZM4.53125 9.0625C4.2909 9.0625 4.06039 9.15798 3.89043 9.32793C3.72048 9.49789 3.625 9.7284 3.625 9.96875V13.5938C3.625 13.8341 3.72048 14.0646 3.89043 14.2346C4.06039 14.4045 4.2909 14.5 4.53125 14.5H8.15625C8.3966 14.5 8.62711 14.4045 8.79707 14.2346C8.96702 14.0646 9.0625 13.8341 9.0625 13.5938V9.96875C9.0625 9.7284 8.96702 9.49789 8.79707 9.32793C8.62711 9.15798 8.3966 9.0625 8.15625 9.0625H4.53125ZM5.4375 12.6875V10.875H7.25V12.6875H5.4375ZM11.7812 9.0625C11.5409 9.0625 11.3104 9.15798 11.1404 9.32793C10.9705 9.49789 10.875 9.7284 10.875 9.96875C10.875 10.2091 10.9705 10.4396 11.1404 10.6096C11.3104 10.7795 11.5409 10.875 11.7812 10.875H17.2188C17.4591 10.875 17.6896 10.7795 17.8596 10.6096C18.0295 10.4396 18.125 10.2091 18.125 9.96875C18.125 9.7284 18.0295 9.49789 17.8596 9.32793C17.6896 9.15798 17.4591 9.0625 17.2188 9.0625H11.7812ZM11.7812 12.6875C11.5409 12.6875 11.3104 12.783 11.1404 12.9529C10.9705 13.1229 10.875 13.3534 10.875 13.5938C10.875 13.8341 10.9705 14.0646 11.1404 14.2346C11.3104 14.4045 11.5409 14.5 11.7812 14.5H17.2188C17.4591 14.5 17.6896 14.4045 17.8596 14.2346C18.0295 14.0646 18.125 13.8341 18.125 13.5938C18.125 13.3534 18.0295 13.1229 17.8596 12.9529C17.6896 12.783 17.4591 12.6875 17.2188 12.6875H11.7812ZM0 3.625C0 2.66359 0.381919 1.74156 1.06174 1.06174C1.74156 0.381918 2.66359 0 3.625 0H18.125C19.0864 0 20.0084 0.381918 20.6883 1.06174C21.3681 1.74156 21.75 2.66359 21.75 3.625C22.7114 3.625 23.6334 4.00692 24.3133 4.68674C24.9931 5.36656 25.375 6.28859 25.375 7.25V15.4062C25.375 16.608 24.8976 17.7606 24.0478 18.6103C23.1981 19.4601 22.0455 19.9375 20.8438 19.9375H4.53125C3.32949 19.9375 2.17695 19.4601 1.32717 18.6103C0.477398 17.7606 0 16.608 0 15.4062V3.625ZM20.8438 15.4062C20.6034 15.4062 20.3729 15.3108 20.2029 15.1408C20.033 14.9709 19.9375 14.7404 19.9375 14.5V3.625C19.9375 3.14429 19.7465 2.68328 19.4066 2.34337C19.0667 2.00346 18.6057 1.8125 18.125 1.8125H3.625C3.14429 1.8125 2.68328 2.00346 2.34337 2.34337C2.00346 2.68328 1.8125 3.14429 1.8125 3.625V15.4062C1.8125 16.1273 2.09894 16.8188 2.6088 17.3287C3.11867 17.8386 3.81019 18.125 4.53125 18.125H20.8438C21.5648 18.125 22.2563 17.8386 22.7662 17.3287C23.2761 16.8188 23.5625 16.1273 23.5625 15.4062V7.25C23.5625 6.7693 23.3715 6.30828 23.0316 5.96837C22.6917 5.62846 22.2307 5.4375 21.75 5.4375V14.5C21.75 14.7404 21.6545 14.9709 21.4846 15.1408C21.3146 15.3108 21.0841 15.4062 20.8438 15.4062Z" fill="#8C8C8D"/>
</svg>
