<svg width="22" height="22" viewBox="0 0 22 22" fill="none" xmlns="http://www.w3.org/2000/svg">
<path fill-rule="evenodd" clip-rule="evenodd" d="M6.60001 0.915494C7.98817 0.309653 9.48677 -0.00205693 11.0014 1.02144e-05C11.5537 0.000764034 12.0008 0.44909 12 1.00137C11.9993 1.55366 11.5509 2.00076 10.9986 2.00001C9.76028 1.99832 8.53499 2.25318 7.40001 2.74852C6.89383 2.96944 6.30441 2.73819 6.08349 2.23201C5.86258 1.72583 6.09383 1.13641 6.60001 0.915494ZM13.9157 1.59949C14.1369 1.09344 14.7265 0.86252 15.2325 1.08372C17.7752 2.19513 19.8049 4.22487 20.9163 6.76749C21.1375 7.27354 20.9066 7.8631 20.4005 8.0843C19.8945 8.3055 19.3049 8.07458 19.0837 7.56853C18.174 5.48736 16.5127 3.826 14.4315 2.9163C13.9254 2.6951 13.6945 2.10554 13.9157 1.59949ZM4.63712 3.22291C5.02709 3.61399 5.02619 4.24715 4.63511 4.63712C3.79834 5.47151 3.13476 6.46309 2.68254 7.55482C2.23031 8.64656 1.99835 9.81692 2.00001 10.9986C2.00078 11.5509 1.55369 11.9992 1.00141 12C0.449126 12.0008 0.000783939 11.5537 1.0747e-05 11.0014C-0.00201259 9.55613 0.281683 8.1247 0.834786 6.78943C1.38789 5.45417 2.19949 4.24141 3.22291 3.2209C3.61399 2.83093 4.24715 2.83183 4.63712 3.22291ZM20.9986 10C21.5509 9.99926 21.9993 10.4464 22 10.9986C22.0021 12.5132 21.6904 14.0119 21.0845 15.4C20.8636 15.9062 20.2742 16.1374 19.768 15.9165C19.2618 15.6956 19.0306 15.1062 19.2515 14.6C19.7468 13.465 20.0017 12.2397 20 11.0014C19.9993 10.4491 20.4464 10.0008 20.9986 10ZM1.43149 14.0837C1.93754 13.8625 2.5271 14.0934 2.7483 14.5995C3.658 16.6807 5.31936 18.342 7.40053 19.2517C7.90658 19.4729 8.1375 20.0625 7.9163 20.5685C7.6951 21.0746 7.10554 21.3055 6.59949 21.0843C4.05687 19.9729 2.02713 17.9432 0.915722 15.4005C0.694521 14.8945 0.925438 14.3049 1.43149 14.0837ZM18.7771 17.3629C19.1682 17.7529 19.1691 18.386 18.7791 18.7771C17.7586 19.8005 16.5458 20.6121 15.2106 21.1652C13.8753 21.7183 12.4439 22.002 10.9986 22C10.4463 21.9992 9.99924 21.5509 10 20.9986C10.0008 20.4463 10.4491 19.9992 11.0014 20C12.1831 20.0017 13.3535 19.7697 14.4452 19.3175C15.5369 18.8653 16.5285 18.2017 17.3629 17.3649C17.7529 16.9738 18.386 16.9729 18.7771 17.3629Z" fill="#8C8C8D"/>
</svg>
