<svg width="18" height="18" viewBox="0 0 18 18" fill="none" xmlns="http://www.w3.org/2000/svg">
<path d="M12.2093 11H11.4377L11.1642 10.73C12.1545 9.55402 12.6988 8.0527 12.6977 6.5C12.6977 5.21442 12.3253 3.95772 11.6277 2.8888C10.9301 1.81988 9.93853 0.986756 8.77843 0.494786C7.61834 0.00281635 6.3418 -0.125905 5.11024 0.124899C3.87869 0.375703 2.74743 0.994767 1.85953 1.90381C0.971633 2.81285 0.366965 3.97104 0.121994 5.23192C-0.122977 6.49279 0.00275085 7.79973 0.483279 8.98744C0.963808 10.1752 1.77755 11.1903 2.82162 11.9046C3.86568 12.6188 5.09316 13 6.34884 13C7.9214 13 9.36698 12.41 10.4805 11.43L10.7442 11.71V12.5L15.6279 17.49L17.0833 16L12.2093 11ZM6.34884 11C3.91675 11 1.95349 8.99 1.95349 6.5C1.95349 4.01 3.91675 2 6.34884 2C8.78093 2 10.7442 4.01 10.7442 6.5C10.7442 8.99 8.78093 11 6.34884 11Z" fill="#1A1A1A"/>
</svg>
